<svg width="178" height="179" viewBox="0 0 178 179" fill="none" xmlns="http://www.w3.org/2000/svg">
<path fill-rule="evenodd" clip-rule="evenodd" d="M72.9277 107.718H77.8321V103.172H72.9277V107.718Z" fill="#E42421"/>
<path fill-rule="evenodd" clip-rule="evenodd" d="M112.388 112.591C111.807 114.613 110.938 116.412 109.777 117.986C108.616 119.56 107.175 120.829 105.452 121.79C103.727 122.751 101.705 123.232 99.3853 123.232C97.0653 123.232 95.0348 122.751 93.2946 121.79C92.4828 121.341 91.7371 120.823 91.0518 120.242L97.759 112.297H100.44V89.6582C102.323 89.7847 103.995 90.2493 105.452 91.0618C107.175 92.0232 108.616 93.2912 109.777 94.8648C110.938 96.4406 111.807 98.2384 112.388 100.26C112.968 102.283 113.258 104.338 113.258 106.426C113.258 108.514 112.968 110.57 112.388 112.591M88.944 117.986C87.7836 116.412 86.9128 114.613 86.3337 112.591C85.7531 110.57 85.4636 108.514 85.4636 106.426C85.4636 104.338 85.7531 102.283 86.3337 100.26C86.9128 98.2384 87.7836 96.4406 88.944 94.8648C90.1037 93.2912 91.5543 92.0232 93.2946 91.0618C94.0325 90.6541 94.8253 90.3385 95.6666 90.1038V112.124L89.8141 119.048C89.5084 118.71 89.2174 118.357 88.944 117.986M90.7159 87.8322C91.3941 86.1595 91.735 84.311 91.735 82.289V79.2316H95.6666V88.4528C94.015 88.7073 92.4919 89.1332 91.1066 89.7439C90.3743 90.0665 89.6841 90.425 89.0277 90.8116C89.7045 89.9253 90.2682 88.9336 90.7159 87.8322M117.037 99.713C116.241 97.525 115.064 95.5789 113.507 93.871C111.949 92.1645 109.993 90.7884 107.639 89.7439C105.552 88.8183 103.152 88.3045 100.44 88.1998V79.2316H113.368V77.4914H91.735V64.4137C92.8869 64.3673 94.0276 64.2071 95.1578 63.933C96.5164 63.6005 97.7934 63.0706 98.9868 62.3411C100.18 61.6129 101.274 60.7007 102.268 59.6063C103.263 58.5127 104.091 57.2033 104.754 55.6782L103.312 55.1314C101.986 57.8162 100.287 59.7891 98.2158 61.0486C96.1607 62.2975 94.0009 62.9265 91.735 62.9371V56.4534H90.044V62.852C88.3607 62.6749 86.8496 62.216 85.5121 61.4717C83.755 60.494 82.2875 59.2177 81.1116 57.6426C79.9344 56.0683 79.0558 54.262 78.476 52.223C77.8961 50.1841 77.6059 48.1136 77.6059 46.0079C77.6059 43.9036 77.8961 41.8309 78.476 39.7927C79.0558 37.7538 79.9344 35.9475 81.1116 34.3731C82.2875 32.7995 83.755 31.5224 85.5121 30.5448C87.2685 29.5671 89.3235 29.0779 91.6773 29.0779C93.9313 29.0449 96.1031 29.6669 98.1905 30.9419C100.279 32.2189 101.986 34.1988 103.312 36.8836L104.754 36.3368C104.091 34.8454 103.27 33.5445 102.293 32.434C101.315 31.3235 100.237 30.4119 99.0613 29.6992C97.8841 28.9866 96.6246 28.4482 95.2822 28.0834C93.9391 27.7187 92.5728 27.5359 91.1804 27.5359C88.1301 27.5036 85.4622 28.0174 83.1751 29.0779C80.8881 30.1392 78.9813 31.5308 77.4569 33.2542C75.9317 34.9775 74.7798 36.942 74.001 39.1461C73.2223 41.3516 72.8238 43.6049 72.8083 45.9081C72.7907 48.2127 73.1632 50.4751 73.9265 52.6953C74.6891 54.9163 75.8242 56.8969 77.3325 58.6371C78.8407 60.3773 80.7384 61.7781 83.0261 62.8387C85.063 63.7833 87.4027 64.3048 90.044 64.4074V77.4914H82.6895V79.2316H90.044V83.3819C90.044 85.0068 89.7783 86.4491 89.249 87.7085C88.7184 88.9687 88.0057 90.0286 87.111 90.8903C86.2156 91.7534 85.1881 92.4154 84.0277 92.8793C82.8673 93.3439 81.6577 93.6088 80.3982 93.6749C78.807 93.6749 77.3402 93.4514 75.9978 93.0037C74.6554 92.556 73.4865 91.8932 72.492 91.0147C71.4982 90.1368 70.7188 89.0594 70.1558 87.783C69.5914 86.5074 69.3103 85.0406 69.3103 83.3819V56.4534H64.4874V82.289C64.4874 84.5099 64.8684 86.4652 65.6309 88.1555C66.3928 89.8466 67.4126 91.2557 68.689 92.3817C69.9646 93.5097 71.4153 94.363 73.0395 94.9428C74.6631 95.522 76.3211 95.8129 78.0114 95.8129C80.0004 95.8129 81.8405 95.4896 83.5308 94.843C83.989 94.668 84.4276 94.4719 84.8507 94.2576C83.4471 95.8713 82.3809 97.6881 81.6598 99.713C80.8804 101.901 80.491 104.139 80.491 106.426C80.491 108.712 80.8804 110.95 81.6598 113.138C82.4386 115.326 83.6151 117.273 85.1902 118.981C85.9879 119.846 86.8896 120.626 87.8926 121.321L77.5806 133.521V115.043H72.8076V146.797H77.5806V136.156L83.199 129.494L93.6411 146.797H99.2595L86.4314 125.714L89.365 122.24C89.9203 122.55 90.5001 122.84 91.1066 123.107C93.4766 124.151 96.2359 124.673 99.3853 124.673C102.534 124.673 105.285 124.151 107.639 123.107C109.993 122.063 111.949 120.688 113.507 118.981C115.064 117.273 116.241 115.326 117.037 113.138C117.832 110.95 118.23 108.712 118.23 106.426C118.23 104.139 117.832 101.901 117.037 99.713" fill="white"/>
<path fill-rule="evenodd" clip-rule="evenodd" d="M21.3689 46.1099L21.9635 45.2208C22.3746 44.6051 22.5433 44.0689 22.4688 43.6092C22.395 43.151 22.0731 42.7314 21.5038 42.3504C20.9275 41.9653 20.4018 41.8289 19.9274 41.9435C19.4529 42.0581 19.0052 42.4306 18.5828 43.0617L18.0353 43.8805L21.3689 46.1099ZM17.2861 43.3794L17.8336 42.5606C18.204 42.0068 18.3523 41.5007 18.2778 41.0418C18.2033 40.5835 17.9067 40.1801 17.388 39.8336C16.8806 39.4948 16.43 39.388 16.0351 39.5131C15.6401 39.6382 15.2226 40.0304 14.7826 40.6882L14.3124 41.3911L17.2861 43.3794ZM21.5629 47.517L12.9615 41.765L14.0102 40.197C14.4319 39.5658 14.7861 39.1392 15.0729 38.9157C15.3596 38.6929 15.6935 38.5467 16.0765 38.4778C16.3471 38.423 16.6402 38.4378 16.9558 38.5193C17.2706 38.6008 17.5834 38.7449 17.8933 38.9522C18.3811 39.2791 18.7185 39.6523 18.9061 40.0711C19.0931 40.4907 19.1332 40.9616 19.0249 41.4831C19.5162 41.117 20.0159 40.9356 20.5234 40.9392C21.0315 40.942 21.56 41.1275 22.1097 41.4958C22.9228 42.0391 23.3769 42.6674 23.4718 43.3808C23.5659 44.0942 23.3066 44.9095 22.693 45.8274L21.5629 47.517Z" fill="white"/>
<path fill-rule="evenodd" clip-rule="evenodd" d="M21.3386 31.7354C20.9506 32.1887 20.9204 32.739 21.2479 33.3877C21.5754 34.0357 22.2846 34.8271 23.374 35.7605C24.6222 36.8302 25.6111 37.4979 26.3399 37.7636C27.0695 38.0293 27.6324 37.9309 28.0296 37.467C28.4168 37.0151 28.4358 36.4556 28.0858 35.7914C27.7351 35.1258 26.9767 34.2937 25.8093 33.2935C24.6489 32.2997 23.7106 31.6777 22.9944 31.4289C22.2782 31.1808 21.7265 31.2827 21.3386 31.7354M28.7724 38.1038C28.1603 38.8185 27.352 39.0617 26.3484 38.834C25.3447 38.6049 24.1724 37.9168 22.8321 36.7684C21.4876 35.6164 20.6287 34.565 20.2548 33.6126C19.8809 32.6603 19.9996 31.8274 20.6118 31.1126C21.2212 30.4021 22.0266 30.1575 23.0303 30.3782C24.0332 30.6003 25.2049 31.2848 26.5459 32.4333C27.8862 33.5824 28.745 34.6367 29.1211 35.5967C29.4971 36.5568 29.3811 37.3932 28.7724 38.1038" fill="white"/>
<path fill-rule="evenodd" clip-rule="evenodd" d="M30.8599 30.2288L26.3097 25.2724L27.0919 24.5549L31.576 29.4389C32.4201 30.3589 33.0478 30.879 33.4596 31.0006C33.8715 31.1222 34.2939 30.9837 34.7262 30.5873C35.1486 30.2 35.3151 29.7924 35.2259 29.3651C35.1366 28.9377 34.6756 28.2693 33.8406 27.3599L29.3565 22.4759L30.1338 21.7618L34.684 26.7182C35.2983 27.3873 35.7101 27.8975 35.9217 28.2476C36.1318 28.5983 36.252 28.9328 36.2815 29.254C36.3061 29.6111 36.2387 29.9653 36.0805 30.316C35.9217 30.6667 35.6834 30.9893 35.3643 31.2817C35.0382 31.5811 34.6924 31.7955 34.3276 31.9248C33.9629 32.0548 33.6051 32.09 33.2551 32.0323C32.9402 31.9859 32.6219 31.8475 32.2986 31.6162C31.9753 31.385 31.4959 30.9218 30.8599 30.2288" fill="white"/>
<path fill-rule="evenodd" clip-rule="evenodd" d="M41.6162 25.8512L36.03 18.217L34.3552 19.4428L33.8315 18.7259L38.0261 15.6566L38.5504 16.3728L36.8755 17.5985L42.4624 25.2327L41.6162 25.8512Z" fill="white"/>
<path fill-rule="evenodd" clip-rule="evenodd" d="M47.3031 22.0007L41.9384 13.1534L42.8464 12.6024L48.2112 21.4504L47.3031 22.0007Z" fill="white"/>
<path fill-rule="evenodd" clip-rule="evenodd" d="M54.7357 16.5764C54.5248 16.4611 54.3344 16.3838 54.165 16.3431C53.9963 16.303 53.8389 16.2981 53.692 16.3276L53.4537 15.5109C53.6252 15.449 53.8136 15.4336 54.0167 15.4645C54.2205 15.4954 54.4672 15.5756 54.7575 15.7049C54.7385 15.3774 54.6548 14.995 54.5065 14.5579C54.3568 14.12 54.1319 13.5886 53.8304 12.9631C53.1037 11.4576 52.4592 10.4357 51.8969 9.89735C51.3354 9.35897 50.7815 9.22192 50.2361 9.48478C49.6823 9.75186 49.4328 10.2537 49.4883 10.9903C49.5431 11.7268 49.9107 12.7994 50.591 14.2085C51.251 15.5763 51.859 16.5188 52.417 17.0353C52.9737 17.5533 53.5233 17.6806 54.0645 17.4198C54.2198 17.3453 54.3533 17.2364 54.4658 17.0944C54.5782 16.9517 54.6682 16.7795 54.7357 16.5764M55.5798 17.216C55.4512 17.4648 55.2972 17.6784 55.1173 17.8577C54.9381 18.0376 54.7286 18.1852 54.489 18.3005C53.6421 18.7095 52.8043 18.609 51.9763 17.9968C51.1484 17.3847 50.3514 16.284 49.5839 14.6942C48.815 13.1002 48.4502 11.7915 48.4896 10.7696C48.5289 9.74764 48.9724 9.03215 49.8193 8.6231C50.667 8.21476 51.5047 8.31175 52.3313 8.91619C53.1578 9.52062 53.9562 10.6199 54.7251 12.2139C55.1602 13.1156 55.4589 13.8902 55.6205 14.5361C55.7822 15.182 55.8412 15.8075 55.797 16.4133C56.0591 16.5919 56.3037 16.7029 56.5314 16.7451C56.7591 16.7887 56.9763 16.7669 57.1837 16.6825L57.5815 17.507C57.1886 17.6243 56.8273 17.6588 56.4991 17.611C56.1709 17.5618 55.8637 17.431 55.5798 17.216" fill="white"/>
<path fill-rule="evenodd" clip-rule="evenodd" d="M59.566 11.9256L57.3936 5.55718L58.3986 5.2149L60.5394 11.4898C60.9422 12.672 61.3084 13.4008 61.6359 13.677C61.9641 13.9547 62.4062 13.9975 62.9621 13.8085C63.504 13.6236 63.8203 13.3172 63.911 12.8906C64.0016 12.464 63.8477 11.6655 63.4492 10.4974L61.3084 4.2225L62.3064 3.88162L64.4788 10.2493C64.7726 11.1089 64.9448 11.7414 64.9975 12.147C65.0495 12.5532 65.0242 12.9074 64.9216 13.2139C64.8 13.5505 64.5962 13.8471 64.3102 14.1051C64.0241 14.363 63.6762 14.5612 63.2665 14.7011C62.8469 14.8438 62.4448 14.9007 62.059 14.8726C61.6731 14.8445 61.3308 14.7334 61.0335 14.5401C60.7644 14.3707 60.5282 14.1156 60.3258 13.774C60.1227 13.4325 59.8696 12.8161 59.566 11.9256" fill="white"/>
<path fill-rule="evenodd" clip-rule="evenodd" d="M69.92 12.5193L67.7307 2.40615L72.2781 1.42148L72.4826 2.36398L68.9726 3.12375L69.7254 6.59927L72.2991 6.04192L72.5002 6.97037L69.9264 7.52772L70.7557 11.3596L74.388 10.5724L74.5911 11.5086L69.92 12.5193Z" fill="white"/>
<mask id="mask0_0_7" style="mask-type:alpha" maskUnits="userSpaceOnUse" x="83" y="0" width="7" height="11">
<path fill-rule="evenodd" clip-rule="evenodd" d="M83.7333 0H89.2426V10.3985H83.7333V0Z" fill="white"/>
</mask>
<g mask="url(#mask0_0_7)">
<path fill-rule="evenodd" clip-rule="evenodd" d="M85.0469 9.4272L86.1159 9.39909C86.856 9.37941 87.3915 9.20651 87.7233 8.8804C88.0543 8.55498 88.211 8.04964 88.1928 7.36508C88.1738 6.67138 87.9812 6.16393 87.6136 5.84274C87.2461 5.52225 86.6831 5.37114 85.9247 5.39222L84.9393 5.41823L85.0469 9.4272ZM84.9154 4.51789L85.9001 4.49119C86.5657 4.47291 87.0647 4.30142 87.3958 3.97601C87.7275 3.64989 87.8849 3.17477 87.8681 2.55136C87.8519 1.942 87.6783 1.51116 87.348 1.26165C87.0169 1.01215 86.4561 0.897584 85.6647 0.919372L84.8199 0.941862L84.9154 4.51789ZM84.0102 10.3985L83.7333 0.0548832L85.619 0.00498186C86.378 -0.0161032 86.9319 0.0267698 87.2791 0.13079C87.6263 0.236215 87.939 0.424575 88.2167 0.696573C88.4177 0.887744 88.5758 1.13444 88.6911 1.43947C88.8063 1.7431 88.8689 2.08186 88.8787 2.45437C88.8949 3.04123 88.7853 3.53181 88.5512 3.92751C88.3172 4.3225 87.9559 4.62754 87.4681 4.84049C88.0508 5.03026 88.488 5.33318 88.7789 5.74926C89.0692 6.16464 89.2231 6.70371 89.2407 7.36508C89.2674 8.34273 89.0165 9.07649 88.4894 9.56566C87.9615 10.0555 87.1462 10.3149 86.0428 10.3444L84.0102 10.3985Z" fill="white"/>
</g>
<path fill-rule="evenodd" clip-rule="evenodd" d="M94.8712 6.50883L97.0211 6.70633L96.4378 1.21577L94.8712 6.50883ZM92.6396 10.3386L95.8186 0.239532L97.2727 0.373774L98.5807 10.884L97.4674 10.7814L97.1476 7.69381L94.5528 7.45555L93.6756 10.4335L92.6396 10.3386Z" fill="white"/>
<path fill-rule="evenodd" clip-rule="evenodd" d="M104.412 5.9316L105.295 6.11153C105.988 6.2528 106.54 6.21203 106.949 5.98923C107.358 5.76573 107.623 5.36019 107.743 4.77122C107.864 4.17802 107.781 3.70009 107.497 3.33813C107.211 2.97547 106.718 2.72245 106.015 2.57907L105.132 2.39985L104.412 5.9316ZM102.208 11.4292L104.274 1.29007L106.123 1.66749C107.223 1.89099 107.998 2.27896 108.449 2.82928C108.9 3.3803 109.035 4.10212 108.852 4.99753C108.725 5.61813 108.483 6.10801 108.124 6.46786C107.766 6.82701 107.31 7.03786 106.755 7.10112L107.384 12.4834L106.26 12.255L105.716 7.12431C105.436 7.07722 105.217 7.03927 105.061 7.01256C104.905 6.98515 104.761 6.95844 104.629 6.93174L104.225 6.8495L103.248 11.6414L102.208 11.4292Z" fill="white"/>
<path fill-rule="evenodd" clip-rule="evenodd" d="M114.071 8.30499L115.006 8.61353C115.638 8.82298 116.166 8.83071 116.588 8.63672C117.01 8.44274 117.32 8.04986 117.516 7.45666C117.707 6.87753 117.689 6.41506 117.464 6.06716C117.237 5.71995 116.748 5.42195 115.996 5.17385L115.194 4.90818L114.071 8.30499ZM112.529 12.9683L113.544 13.3036C114.247 13.5362 114.81 13.5559 115.231 13.3612C115.654 13.1672 115.973 12.7455 116.187 12.0954C116.405 11.4368 116.396 10.8942 116.159 10.4669C115.922 10.041 115.444 9.70785 114.723 9.46959L113.788 9.16034L112.529 12.9683ZM111.225 13.5306L114.473 3.70633L116.264 4.29812C116.985 4.53708 117.491 4.7641 117.782 4.98127C118.074 5.19704 118.304 5.48029 118.473 5.8303C118.597 6.0777 118.662 6.36375 118.667 6.68987C118.672 7.01528 118.616 7.35475 118.499 7.70828C118.315 8.26563 118.046 8.69084 117.691 8.98322C117.337 9.2756 116.894 9.43936 116.362 9.47451C116.847 9.85052 117.155 10.2835 117.287 10.774C117.419 11.2639 117.381 11.8234 117.174 12.4503C116.867 13.3795 116.382 13.9846 115.72 14.2657C115.058 14.5476 114.203 14.5152 113.155 14.1687L111.225 13.5306Z" fill="white"/>
<path fill-rule="evenodd" clip-rule="evenodd" d="M120.036 16.7356L124.383 7.34641L128.605 9.3017L128.2 10.176L124.941 8.66774L123.447 11.8945L125.838 13.0014L125.438 13.8631L123.048 12.7568L121.401 16.3132L124.774 17.8749L124.372 18.7436L120.036 16.7356Z" fill="white"/>
<path fill-rule="evenodd" clip-rule="evenodd" d="M131.628 16.1103L132.397 16.5791C133.002 16.9474 133.534 17.0957 133.996 17.0247C134.456 16.953 134.842 16.6614 135.155 16.1483C135.47 15.6303 135.554 15.1538 135.41 14.7159C135.264 14.2788 134.885 13.8732 134.272 13.5L133.503 13.0312L131.628 16.1103ZM127.69 20.5347L133.072 11.6972L134.683 12.6784C135.642 13.2617 136.24 13.8901 136.477 14.5606C136.715 15.2318 136.597 15.9571 136.122 16.7366C135.792 17.2778 135.398 17.6566 134.939 17.8731C134.48 18.0895 133.979 18.1338 133.435 18.0045L132.201 23.2821L131.223 22.6861L132.45 17.6749C132.203 17.535 132.01 17.4261 131.872 17.3473C131.735 17.2686 131.608 17.1948 131.493 17.1245L131.141 16.9102L128.597 21.0871L127.69 20.5347Z" fill="white"/>
<path fill-rule="evenodd" clip-rule="evenodd" d="M136.826 23.1627L137.614 23.7763C137.229 24.3315 137.042 24.8193 137.055 25.2396C137.067 25.6599 137.281 26.031 137.697 26.3543C138.053 26.6326 138.437 26.7338 138.849 26.6593C139.262 26.5841 139.627 26.3431 139.944 25.9347C140.222 25.5791 140.372 25.1721 140.398 24.716C140.422 24.2606 140.296 23.5444 140.022 22.5695C139.752 21.5912 139.643 20.8546 139.697 20.3605C139.752 19.8657 139.956 19.392 140.307 18.9394C140.713 18.4179 141.225 18.115 141.842 18.0313C142.458 17.9484 143.026 18.1086 143.544 18.5114C144.154 18.9865 144.483 19.5537 144.53 20.2136C144.578 20.8729 144.341 21.5603 143.82 22.2757L143.048 21.6748C143.4 21.147 143.576 20.6782 143.574 20.2706C143.574 19.8622 143.392 19.5171 143.033 19.2374C142.698 18.9773 142.352 18.8726 141.993 18.9239C141.634 18.9752 141.32 19.1734 141.051 19.5192C140.914 19.6956 140.815 19.8952 140.755 20.1159C140.694 20.3373 140.675 20.5636 140.697 20.7928C140.732 21.1273 140.827 21.5757 140.982 22.1387C141.137 22.7024 141.232 23.0601 141.268 23.2112C141.438 23.9401 141.484 24.56 141.405 25.0709C141.325 25.5819 141.11 26.0633 140.758 26.516C140.255 27.1626 139.667 27.5393 138.995 27.644C138.322 27.7494 137.685 27.5681 137.082 27.0986C136.435 26.5947 136.089 26.0008 136.044 25.3155C135.998 24.6317 136.259 23.9134 136.826 23.1627" fill="white"/>
<path fill-rule="evenodd" clip-rule="evenodd" d="M142.265 31.1739L149.521 23.797L150.278 24.5413L147.167 27.7047L149.309 29.8118L152.419 26.6491L153.172 27.3885L145.916 34.7647L145.164 34.0253L148.618 30.514L146.476 28.4069L143.022 31.9189L142.265 31.1739Z" fill="white"/>
<path fill-rule="evenodd" clip-rule="evenodd" d="M157.935 34.0312C157.563 33.566 157.027 33.4324 156.329 33.6334C155.63 33.8337 154.721 34.382 153.6 35.2774C152.315 36.3035 151.475 37.1497 151.077 37.8167C150.679 38.483 150.671 39.0544 151.052 39.5309C151.424 39.9969 151.97 40.1199 152.689 39.9006C153.408 39.6806 154.367 39.091 155.568 38.1316C156.762 37.1785 157.547 36.3724 157.925 35.7152C158.304 35.0588 158.306 34.4972 157.935 34.0312M150.288 40.1417C149.701 39.4065 149.613 38.568 150.025 37.6241C150.437 36.6816 151.332 35.6583 152.711 34.557C154.094 33.4521 155.288 32.8048 156.293 32.615C157.299 32.426 158.096 32.6987 158.682 33.4338C159.267 34.1648 159.356 35.0033 158.951 35.9472C158.546 36.8904 157.653 37.9137 156.274 39.0158C154.896 40.1178 153.699 40.7637 152.685 40.9542C151.672 41.1439 150.872 40.8734 150.288 40.1417" fill="white"/>
<path fill-rule="evenodd" clip-rule="evenodd" d="M159.886 43.5326L160.364 44.2973C160.732 44.8856 161.143 45.2461 161.598 45.3804C162.052 45.5132 162.541 45.4162 163.067 45.088C163.608 44.7492 163.918 44.3479 163.998 43.8833C164.079 43.4187 163.934 42.8902 163.563 42.297L163.085 41.533L159.886 43.5326ZM154.566 45.6053L163.341 40.121L164.259 41.5907C164.851 42.5388 165.096 43.3709 164.994 44.085C164.891 44.8005 164.441 45.4071 163.644 45.9054C162.845 46.4044 162.104 46.5421 161.418 46.32C160.732 46.0972 160.094 45.5118 159.502 44.5644L159.145 43.9951L155.129 46.5056L154.566 45.6053Z" fill="white"/>
<mask id="mask1_0_7" style="mask-type:alpha" maskUnits="userSpaceOnUse" x="0" y="0" width="178" height="179">
<path fill-rule="evenodd" clip-rule="evenodd" d="M0 178.046H177.386V0H0V178.046Z" fill="white"/>
</mask>
<g mask="url(#mask1_0_7)">
<path fill-rule="evenodd" clip-rule="evenodd" d="M165.666 59.6363H170.181V55.451H165.666V59.6363Z" fill="white"/>
<path fill-rule="evenodd" clip-rule="evenodd" d="M7.87671 59.6363H12.3924V55.451H7.87671V59.6363Z" fill="white"/>
<path fill-rule="evenodd" clip-rule="evenodd" d="M4.12048 70.9562L3.97218 71.7209C3.44927 71.6485 3.04444 71.6914 2.75698 71.8488C2.46952 72.0048 2.28678 72.2853 2.20877 72.688C2.1413 73.0338 2.20666 73.3374 2.40416 73.5975C2.60095 73.8575 2.89755 74.0255 3.29324 74.1028C3.63904 74.1696 3.97429 74.1316 4.30041 73.9876C4.62652 73.8435 5.07985 73.504 5.6604 72.9698C6.24516 72.4357 6.71887 72.1004 7.08223 71.9641C7.4456 71.827 7.84622 71.8017 8.28479 71.8868C8.79083 71.9852 9.18161 72.2333 9.45782 72.6332C9.73333 73.0324 9.82259 73.4836 9.7249 73.9868C9.61034 74.5779 9.33201 75.0067 8.88993 75.273C8.44784 75.538 7.88628 75.616 7.20523 75.5064L7.35001 74.7572C7.842 74.8155 8.22926 74.7726 8.51321 74.6278C8.79645 74.4831 8.97216 74.2357 9.03963 73.8863C9.10218 73.5623 9.05299 73.2847 8.89063 73.0528C8.72828 72.8215 8.47947 72.6732 8.14492 72.6086C7.97343 72.5756 7.80053 72.577 7.62482 72.6128C7.44982 72.6494 7.28606 72.7154 7.13424 72.8124C6.91426 72.9544 6.63593 73.1786 6.29857 73.485C5.96191 73.7908 5.74684 73.9833 5.65407 74.0613C5.20707 74.4374 4.7931 74.6883 4.40935 74.8134C4.0263 74.9385 3.61514 74.9589 3.17728 74.8738C2.54964 74.7515 2.08085 74.476 1.7702 74.0459C1.45954 73.615 1.36115 73.1083 1.47501 72.5228C1.5966 71.8959 1.88757 71.4454 2.34723 71.1727C2.80758 70.8993 3.39867 70.8269 4.12048 70.9562" fill="white"/>
<path fill-rule="evenodd" clip-rule="evenodd" d="M3.71524 79.5015L3.53672 81.1757L7.82402 80.7835L3.71524 79.5015ZM0.755598 77.7177L8.59152 80.3119L8.47133 81.4441L0.262207 82.3438L0.354981 81.4772L2.76571 81.2628L2.98148 79.2429L0.669852 78.5246L0.755598 77.7177Z" fill="white"/>
<path fill-rule="evenodd" clip-rule="evenodd" d="M0.0846949 85.8058L8.14693 86.0925L8.11741 86.9205L0.0551758 86.6337L0.0846949 85.8058Z" fill="white"/>
<path fill-rule="evenodd" clip-rule="evenodd" d="M5.62678 91.8773C5.92338 91.7529 6.2249 91.6334 6.53133 91.5203C6.83777 91.4057 7.14842 91.2954 7.464 91.1893L0.0286942 91.4837L-0.00012207 90.7605L8.06071 90.44L8.1085 91.6426L3.60332 93.4903C3.24487 93.6316 2.90259 93.7637 2.57507 93.8846C2.24684 94.0069 1.92916 94.1194 1.62062 94.2227C1.85888 94.1918 2.10557 94.1658 2.3593 94.1447C2.61232 94.1236 2.9532 94.1046 3.38122 94.0878L8.19846 93.8959L8.22728 94.6198L0.16645 94.9403L0.13412 94.1292L5.62678 91.8773Z" fill="white"/>
<path fill-rule="evenodd" clip-rule="evenodd" d="M0.666382 100.06L7.98291 99.1282L7.77838 97.5236L8.46505 97.4364L8.97672 101.456L8.29075 101.543L8.08622 99.9385L0.769699 100.87L0.666382 100.06Z" fill="white"/>
<path fill-rule="evenodd" clip-rule="evenodd" d="M3.9071 104.539L4.58604 104.407L5.10052 107.025L4.42158 107.159L3.9071 104.539Z" fill="white"/>
<path fill-rule="evenodd" clip-rule="evenodd" d="M7.24212 111.047L7.43118 111.724C7.57667 112.245 7.80509 112.606 8.11504 112.805C8.42569 113.005 8.81296 113.04 9.27823 112.91C9.75757 112.776 10.0788 112.545 10.2411 112.214C10.4028 111.884 10.4105 111.457 10.2643 110.932L10.0752 110.255L7.24212 111.047ZM2.80652 111.427L10.5764 109.255L10.9397 110.557C11.1745 111.396 11.1745 112.072 10.9404 112.585C10.7064 113.096 10.2369 113.451 9.52985 113.649C8.8235 113.845 8.23804 113.786 7.77487 113.469C7.311 113.152 6.96169 112.573 6.72694 111.734L6.58637 111.23L3.02932 112.224L2.80652 111.427Z" fill="white"/>
<path fill-rule="evenodd" clip-rule="evenodd" d="M5.02515 118.766L12.5525 115.863L13.8577 119.248L13.1563 119.518L12.1491 116.906L9.56195 117.903L10.3013 119.819L9.60975 120.086L8.87107 118.17L6.01966 119.27L7.06197 121.973L6.36616 122.242L5.02515 118.766Z" fill="white"/>
<path fill-rule="evenodd" clip-rule="evenodd" d="M8.14673 126.401L14.8363 123.295L14.1546 121.828L14.7822 121.536L16.4894 125.213L15.8618 125.504L15.18 124.036L8.49112 127.143L8.14673 126.401Z" fill="white"/>
<path fill-rule="evenodd" clip-rule="evenodd" d="M10.7844 131.71L17.8058 127.738L19.5924 130.896L18.938 131.266L17.5591 128.828L15.1462 130.194L16.1576 131.982L15.5124 132.346L14.5017 130.558L11.8415 132.064L13.2689 134.586L12.6188 134.953L10.7844 131.71Z" fill="white"/>
<path fill-rule="evenodd" clip-rule="evenodd" d="M18.7573 136.128L19.1544 136.707C19.4671 137.162 19.7982 137.438 20.1482 137.535C20.4989 137.632 20.8672 137.548 21.2537 137.283C21.6424 137.016 21.8561 136.702 21.8919 136.346C21.9285 135.988 21.7886 135.578 21.4723 135.117L21.0745 134.537L18.7573 136.128ZM14.5424 138.016L21.1947 133.451L22.0269 134.664C22.5217 135.385 22.7466 136.023 22.7016 136.576C22.6559 137.129 22.3396 137.607 21.7528 138.01C21.3458 138.289 20.9438 138.432 20.5481 138.439C20.1524 138.447 19.782 138.318 19.4369 138.052L16.8723 141.411L16.3669 140.674L18.8423 137.503C18.7109 137.325 18.609 137.186 18.5359 137.086C18.4628 136.986 18.3967 136.893 18.337 136.806L18.1556 136.541L15.0112 138.698L14.5424 138.016Z" fill="white"/>
<path fill-rule="evenodd" clip-rule="evenodd" d="M20.6211 142.819L21.1166 143.42C20.7286 143.777 20.5037 144.117 20.4418 144.439C20.3793 144.76 20.4791 145.08 20.7398 145.396C20.964 145.668 21.2388 145.81 21.5657 145.824C21.8918 145.838 22.2102 145.716 22.5215 145.46C22.7935 145.236 22.9777 144.952 23.0739 144.609C23.1695 144.267 23.1969 143.701 23.1541 142.913C23.1147 142.122 23.1576 141.544 23.2834 141.176C23.4085 140.809 23.6439 140.484 23.989 140.199C24.3868 139.871 24.8275 139.728 25.3111 139.77C25.7946 139.811 26.1995 140.029 26.5249 140.425C26.9079 140.89 27.0618 141.377 26.9859 141.887C26.9093 142.397 26.6113 142.88 26.0933 143.335L25.6084 142.747C25.9661 142.405 26.1798 142.078 26.248 141.768C26.3168 141.457 26.2381 141.165 26.0118 140.89C25.8017 140.635 25.5557 140.496 25.2745 140.474C24.9927 140.452 24.72 140.55 24.4564 140.767C24.3222 140.877 24.2125 141.012 24.1296 141.17C24.0453 141.329 23.9926 141.497 23.9701 141.676C23.9398 141.936 23.9356 142.293 23.9581 142.748C23.9792 143.203 23.9912 143.491 23.9926 143.613C23.9975 144.196 23.9272 144.676 23.7803 145.051C23.6327 145.427 23.3867 145.756 23.0423 146.04C22.5489 146.447 22.038 146.633 21.508 146.598C20.9788 146.564 20.5248 146.317 20.1459 145.858C19.7397 145.364 19.5773 144.853 19.6589 144.325C19.7411 143.796 20.0616 143.294 20.6211 142.819" fill="white"/>
<path fill-rule="evenodd" clip-rule="evenodd" d="M27.9435 147.534L28.4825 148.081C28.8466 148.451 29.2093 148.644 29.5712 148.66C29.9332 148.675 30.2874 148.513 30.6346 148.171C30.9734 147.837 31.1266 147.51 31.0929 147.189C31.0598 146.868 30.8265 146.487 30.3929 146.047L29.9311 145.577L27.9435 147.534ZM25.2144 150.22L25.7991 150.814C26.2039 151.226 26.5877 151.439 26.9497 151.455C27.3116 151.47 27.6827 151.291 28.063 150.916C28.4488 150.536 28.6351 150.157 28.6231 149.777C28.6105 149.396 28.3968 148.996 27.9814 148.573L27.4423 148.027L25.2144 150.22ZM24.1095 150.146L29.8587 144.486L30.8905 145.534C31.3058 145.957 31.5757 146.294 31.7008 146.548C31.8259 146.802 31.8843 147.08 31.8772 147.383C31.8758 147.599 31.8189 147.821 31.7065 148.048C31.594 148.277 31.4345 148.492 31.2271 148.696C30.901 149.017 30.5636 149.216 30.2136 149.292C29.8636 149.369 29.4981 149.325 29.1165 149.16C29.3189 149.594 29.3787 150.004 29.2957 150.39C29.2135 150.777 28.9879 151.152 28.6203 151.514C28.077 152.049 27.526 152.296 26.9665 152.256C26.4064 152.215 25.8251 151.889 25.2214 151.275L24.1095 150.146Z" fill="white"/>
<path fill-rule="evenodd" clip-rule="evenodd" d="M31.666 153.553L35.0515 149.547L35.6841 150.081L32.3477 154.03C31.7194 154.773 31.3785 155.31 31.3258 155.641C31.2717 155.97 31.42 156.284 31.7693 156.579C32.1102 156.867 32.4419 156.956 32.7638 156.845C33.0857 156.734 33.5573 156.312 34.1786 155.577L37.515 151.628L38.1433 152.16L34.757 156.166C34.3002 156.706 33.9467 157.076 33.6965 157.273C33.4463 157.471 33.1989 157.597 32.9536 157.651C32.6795 157.704 32.399 157.687 32.1123 157.599C31.8255 157.512 31.5528 157.358 31.2949 157.141C31.0313 156.918 30.8317 156.672 30.6953 156.403C30.5597 156.133 30.4964 155.86 30.507 155.584C30.5119 155.336 30.5878 155.076 30.7347 154.802C30.8823 154.53 31.1923 154.114 31.666 153.553" fill="white"/>
<path fill-rule="evenodd" clip-rule="evenodd" d="M39.5114 157.601L40.0871 158.004C40.539 158.32 40.9466 158.463 41.3086 158.431C41.6698 158.398 41.9854 158.19 42.2539 157.806C42.5252 157.419 42.6152 157.052 42.5231 156.705C42.4317 156.357 42.1576 156.023 41.6994 155.702L41.1237 155.299L39.5114 157.601ZM36.2278 160.848L40.8546 154.24L42.0592 155.083C42.7768 155.585 43.2105 156.103 43.3623 156.637C43.5134 157.171 43.3855 157.729 42.9771 158.313C42.6932 158.717 42.3678 158.992 42.0002 159.138C41.6319 159.284 41.2397 159.292 40.8236 159.165L39.6007 163.209L38.869 162.698L40.0737 158.859C39.8882 158.738 39.7434 158.644 39.6401 158.576C39.5374 158.508 39.4426 158.444 39.3561 158.384L39.0925 158.199L36.9053 161.323L36.2278 160.848Z" fill="white"/>
<path fill-rule="evenodd" clip-rule="evenodd" d="M45.8805 166.997L46.0387 166.547C45.7744 166.643 45.5179 166.678 45.2712 166.653C45.0231 166.629 44.7686 166.542 44.5072 166.391C43.843 166.01 43.5141 165.428 43.5211 164.647C43.5274 163.866 43.8697 162.884 44.5479 161.704C45.2803 160.428 45.9831 159.581 46.6572 159.162C47.3312 158.742 48.0101 158.729 48.6933 159.121C49.2288 159.428 49.5395 159.866 49.6245 160.431C49.7096 160.998 49.5564 161.622 49.1642 162.306L48.4698 161.907C48.7369 161.383 48.8584 160.936 48.8331 160.568C48.8085 160.199 48.6378 159.924 48.3236 159.744C47.8822 159.491 47.431 159.544 46.9685 159.905C46.5061 160.266 45.9543 161.004 45.3147 162.119C44.7286 163.139 44.4081 163.942 44.3526 164.527C44.297 165.113 44.4988 165.538 44.9584 165.802C45.2803 165.987 45.6008 166.014 45.9206 165.883C46.2404 165.752 46.5187 165.481 46.7556 165.068L47.2272 164.247L46.2116 163.663L46.5721 163.035L48.2681 164.009L46.3859 167.287L45.8805 166.997Z" fill="white"/>
<path fill-rule="evenodd" clip-rule="evenodd" d="M55.0688 168.633L55.3289 167.992L57.8022 168.997L57.5414 169.638L55.0688 168.633Z" fill="white"/>
<path fill-rule="evenodd" clip-rule="evenodd" d="M65.5908 172.045L66.8868 166.962L67.6888 167.166L66.4117 172.175C66.1713 173.118 66.0989 173.75 66.1952 174.071C66.2915 174.391 66.5614 174.608 67.0049 174.721C67.4378 174.831 67.7745 174.767 68.0156 174.526C68.2566 174.286 68.4963 173.7 68.7339 172.767L70.0116 167.758L70.8086 167.961L69.5126 173.045C69.3376 173.73 69.1802 174.217 69.0417 174.504C68.9033 174.791 68.7353 175.013 68.5378 175.168C68.315 175.337 68.0556 175.443 67.759 175.489C67.4624 175.536 67.1504 175.517 66.8229 175.434C66.489 175.348 66.2016 175.214 65.9619 175.031C65.7215 174.848 65.5458 174.63 65.4341 174.377C65.3307 174.152 65.2851 173.885 65.2984 173.575C65.3125 173.265 65.4095 172.755 65.5908 172.045" fill="white"/>
<path fill-rule="evenodd" clip-rule="evenodd" d="M74.4244 172.239L75.1828 172.361C75.6958 172.443 76.1028 172.383 76.4029 172.18C76.7037 171.979 76.8928 171.638 76.9694 171.157C77.0446 170.687 76.9729 170.333 76.7557 170.094C76.5385 169.855 76.1246 169.687 75.5152 169.589L74.8644 169.486L74.4244 172.239ZM73.8207 176.021L74.6437 176.152C75.2137 176.244 75.6494 176.188 75.9496 175.986C76.2504 175.784 76.4437 175.419 76.5273 174.892C76.613 174.359 76.5378 173.942 76.3024 173.643C76.0662 173.344 75.6565 173.148 75.0724 173.055L74.3141 172.933L73.8207 176.021ZM72.8866 176.617L74.1594 168.651L75.6115 168.883C76.1963 168.976 76.6137 169.088 76.8654 169.217C77.117 169.348 77.3292 169.537 77.5028 169.786C77.6293 169.96 77.7151 170.173 77.7594 170.423C77.8043 170.673 77.8036 170.941 77.758 171.228C77.6856 171.679 77.5316 172.04 77.2955 172.31C77.06 172.578 76.7388 172.76 76.334 172.854C76.7536 173.082 77.0453 173.377 77.2083 173.738C77.3714 174.099 77.4122 174.534 77.3306 175.042C77.2104 175.796 76.9131 176.322 76.4387 176.621C75.9643 176.92 75.3022 177.003 74.4525 176.867L72.8866 176.617Z" fill="white"/>
<path fill-rule="evenodd" clip-rule="evenodd" d="M80.9956 174.879L81.3449 169.645L82.1707 169.7L81.827 174.858C81.7616 175.83 81.8059 176.464 81.9591 176.761C82.1117 177.059 82.4167 177.223 82.8735 177.254C83.3191 177.284 83.6389 177.159 83.8322 176.878C84.0255 176.598 84.1541 175.978 84.2181 175.018L84.5624 169.86L85.3834 169.915L85.0341 175.149C84.987 175.856 84.9209 176.362 84.8366 176.669C84.7529 176.977 84.6278 177.225 84.4626 177.414C84.2743 177.62 84.0381 177.773 83.7549 177.872C83.4716 177.971 83.1617 178.01 82.8243 177.987C82.4799 177.965 82.1735 177.885 81.9036 177.749C81.6351 177.613 81.4222 177.43 81.2661 177.201C81.1235 176.999 81.03 176.744 80.9871 176.437C80.9435 176.13 80.9471 175.611 80.9956 174.879" fill="white"/>
<path fill-rule="evenodd" clip-rule="evenodd" d="M89.698 170.679L89.8695 177.261C89.9967 177.269 90.0916 177.275 90.1528 177.276C90.2146 177.278 90.2694 177.279 90.3165 177.278C91.0791 177.257 91.6069 177.001 91.9014 176.509C92.1959 176.016 92.3259 175.142 92.2936 173.886C92.2613 172.648 92.087 171.793 91.7693 171.319C91.4516 170.846 90.9132 170.62 90.1549 170.639C90.1043 170.641 90.0473 170.644 89.9834 170.649C89.9201 170.655 89.8252 170.664 89.698 170.679V170.679ZM89.0507 178.046L88.8406 169.981L90.3383 169.942C91.2752 169.918 91.9633 170.218 92.4025 170.842C92.8418 171.467 93.0801 172.483 93.1166 173.891C93.1539 175.315 92.969 176.35 92.5628 176.999C92.1566 177.647 91.4846 177.983 90.5478 178.007L89.0507 178.046Z" fill="white"/>
<path fill-rule="evenodd" clip-rule="evenodd" d="M101.299 174.558L101.186 173.875L103.82 173.44L103.932 174.124L101.299 174.558Z" fill="white"/>
<path fill-rule="evenodd" clip-rule="evenodd" d="M112.946 174.666L110.497 166.979L111.721 166.589L113.918 170.291C114.132 170.65 114.335 171.012 114.528 171.378C114.72 171.743 114.908 172.117 115.09 172.496C115.022 172.118 114.963 171.724 114.913 171.313C114.862 170.902 114.819 170.473 114.783 170.027L114.441 165.722L115.671 165.331L118.12 173.018L117.42 173.241L115.144 166.1L115.764 173.768L115.275 173.924L111.361 167.304L113.636 174.446L112.946 174.666Z" fill="white"/>
<path fill-rule="evenodd" clip-rule="evenodd" d="M120.883 163.875C120.456 164.059 120.246 164.434 120.253 165.001C120.259 165.566 120.484 166.363 120.927 167.391C121.434 168.568 121.897 169.374 122.316 169.811C122.735 170.247 123.164 170.371 123.6 170.183C124.028 169.999 124.232 169.614 124.215 169.029C124.198 168.442 123.953 167.6 123.478 166.498C123.007 165.406 122.564 164.649 122.147 164.228C121.731 163.809 121.309 163.691 120.883 163.875M123.902 170.883C123.229 171.174 122.58 171.067 121.955 170.563C121.331 170.059 120.746 169.175 120.202 167.91C119.655 166.643 119.415 165.613 119.48 164.817C119.544 164.022 119.914 163.48 120.587 163.189C121.258 162.901 121.906 163.006 122.533 163.505C123.159 164.005 123.744 164.885 124.289 166.15C124.834 167.414 125.072 168.447 125.007 169.248C124.941 170.049 124.573 170.595 123.902 170.883" fill="white"/>
<path fill-rule="evenodd" clip-rule="evenodd" d="M128.067 166.417L128.752 166.047C129.027 166.496 129.317 166.783 129.621 166.906C129.924 167.029 130.257 166.993 130.618 166.799C130.928 166.632 131.121 166.39 131.198 166.072C131.274 165.754 131.216 165.418 131.025 165.063C130.858 164.753 130.615 164.518 130.297 164.356C129.98 164.196 129.43 164.06 128.649 163.949C127.865 163.836 127.306 163.681 126.97 163.487C126.634 163.293 126.359 162.999 126.148 162.606C125.903 162.152 125.848 161.691 125.983 161.225C126.117 160.759 126.409 160.404 126.86 160.161C127.391 159.875 127.899 159.819 128.384 159.992C128.869 160.165 129.285 160.551 129.633 161.148L128.961 161.511C128.695 161.092 128.416 160.82 128.124 160.692C127.833 160.565 127.53 160.586 127.217 160.754C126.926 160.911 126.743 161.126 126.667 161.397C126.59 161.67 126.633 161.956 126.795 162.257C126.878 162.41 126.989 162.543 127.128 162.655C127.267 162.769 127.422 162.854 127.593 162.91C127.842 162.99 128.192 163.063 128.642 163.129C129.093 163.196 129.378 163.24 129.498 163.263C130.071 163.37 130.528 163.533 130.867 163.749C131.208 163.967 131.483 164.271 131.695 164.665C131.998 165.228 132.082 165.765 131.946 166.278C131.81 166.79 131.48 167.189 130.955 167.471C130.393 167.774 129.86 167.835 129.357 167.652C128.855 167.469 128.424 167.057 128.067 166.417" fill="white"/>
<path fill-rule="evenodd" clip-rule="evenodd" d="M137.912 159.946L138.009 160.092C138.469 160.792 138.672 161.434 138.615 162.016C138.56 162.599 138.251 163.074 137.689 163.444C137.058 163.858 136.396 163.885 135.701 163.523C135.006 163.16 134.286 162.413 133.543 161.281C132.734 160.052 132.295 159.043 132.225 158.252C132.155 157.462 132.449 156.85 133.108 156.417C133.623 156.078 134.153 155.997 134.697 156.177C135.241 156.356 135.729 156.774 136.161 157.433L135.493 157.873C135.145 157.398 134.801 157.088 134.461 156.944C134.121 156.8 133.799 156.828 133.496 157.029C133.072 157.308 132.915 157.737 133.028 158.318C133.139 158.898 133.537 159.707 134.22 160.744C134.888 161.761 135.472 162.424 135.972 162.735C136.471 163.045 136.951 163.048 137.413 162.745C137.729 162.538 137.883 162.235 137.878 161.836C137.872 161.438 137.706 160.99 137.379 160.492L137.289 160.356L137.912 159.946Z" fill="white"/>
<path fill-rule="evenodd" clip-rule="evenodd" d="M139.283 152.866C138.919 153.155 138.815 153.573 138.971 154.117C139.125 154.663 139.551 155.372 140.248 156.248C141.047 157.25 141.705 157.907 142.225 158.218C142.743 158.529 143.19 158.535 143.562 158.24C143.925 157.95 144.022 157.525 143.851 156.964C143.681 156.403 143.223 155.654 142.476 154.717C141.734 153.785 141.107 153.171 140.596 152.875C140.084 152.579 139.646 152.577 139.283 152.866M144.037 158.836C143.462 159.294 142.809 159.36 142.074 159.038C141.338 158.715 140.542 158.016 139.685 156.939C138.826 155.86 138.323 154.928 138.176 154.143C138.03 153.36 138.244 152.739 138.817 152.282C139.389 151.827 140.042 151.759 140.777 152.076C141.513 152.393 142.309 153.09 143.167 154.167C144.024 155.244 144.526 156.177 144.673 156.968C144.82 157.759 144.607 158.381 144.037 158.836" fill="white"/>
<path fill-rule="evenodd" clip-rule="evenodd" d="M149.722 153.693L149.192 154.21L142.647 149.324L143.189 148.795L147.068 151.715C147.394 151.961 147.671 152.179 147.898 152.371C148.125 152.562 148.333 152.749 148.521 152.931C148.321 152.695 148.125 152.448 147.935 152.19C147.744 151.932 147.556 151.665 147.372 151.388L144.729 147.293L145.2 146.831L149.232 149.573C149.506 149.761 149.771 149.953 150.024 150.15C150.277 150.347 150.519 150.548 150.75 150.754C150.563 150.552 150.379 150.339 150.199 150.116C150.02 149.893 149.809 149.613 149.566 149.276L146.744 145.325L147.285 144.796L152.009 151.458L151.483 151.973L146.647 148.602C146.51 148.508 146.369 148.404 146.227 148.289C146.084 148.174 145.94 148.049 145.792 147.913C145.972 148.139 146.128 148.34 146.261 148.515C146.394 148.689 146.5 148.839 146.581 148.963L149.722 153.693Z" fill="white"/>
<path fill-rule="evenodd" clip-rule="evenodd" d="M156.313 142.695L155.763 142.275L157.382 140.154L157.932 140.572L156.313 142.695Z" fill="white"/>
<path fill-rule="evenodd" clip-rule="evenodd" d="M162.534 132.5L163.368 131.039L159.283 129.68L162.534 132.5ZM164.532 135.321L158.39 129.804L158.955 128.815L166.836 131.28L166.405 132.037L164.109 131.267L163.103 133.032L164.934 134.616L164.532 135.321Z" fill="white"/>
<path fill-rule="evenodd" clip-rule="evenodd" d="M168.465 128.115L161.104 124.813L161.631 123.64L165.855 124.471C166.264 124.552 166.669 124.643 167.071 124.742C167.471 124.843 167.874 124.952 168.279 125.07C167.952 124.867 167.618 124.647 167.279 124.411C166.938 124.176 166.591 123.922 166.235 123.651L162.799 121.036L163.327 119.857L170.688 123.159L170.387 123.83L163.548 120.762L169.676 125.416L169.466 125.883L161.923 124.385L168.762 127.454L168.465 128.115Z" fill="white"/>
<path fill-rule="evenodd" clip-rule="evenodd" d="M170.043 118.856L170.291 118.118C170.8 118.258 171.207 118.271 171.512 118.153C171.819 118.036 172.037 117.783 172.168 117.394C172.28 117.06 172.257 116.751 172.095 116.467C171.935 116.183 171.663 115.976 171.281 115.848C170.947 115.736 170.609 115.729 170.268 115.828C169.925 115.927 169.431 116.203 168.784 116.655C168.134 117.107 167.619 117.376 167.241 117.463C166.863 117.55 166.462 117.523 166.039 117.38C165.55 117.215 165.196 116.916 164.976 116.483C164.756 116.051 164.728 115.592 164.891 115.107C165.083 114.537 165.417 114.148 165.89 113.943C166.363 113.74 166.931 113.737 167.591 113.936L167.347 114.659C166.868 114.536 166.478 114.527 166.178 114.632C165.878 114.739 165.671 114.96 165.557 115.298C165.452 115.61 165.464 115.892 165.594 116.143C165.724 116.393 165.951 116.574 166.274 116.683C166.439 116.739 166.611 116.76 166.79 116.748C166.968 116.735 167.139 116.691 167.303 116.616C167.54 116.504 167.846 116.319 168.22 116.06C168.595 115.801 168.833 115.639 168.936 115.574C169.428 115.261 169.873 115.068 170.27 114.995C170.666 114.921 171.076 114.956 171.499 115.099C172.105 115.303 172.533 115.639 172.783 116.107C173.033 116.575 173.063 117.091 172.873 117.655C172.669 118.26 172.321 118.668 171.829 118.877C171.337 119.087 170.741 119.08 170.043 118.856" fill="white"/>
<path fill-rule="evenodd" clip-rule="evenodd" d="M174.644 111.098L167.487 109.315L167.097 110.885L166.425 110.718L167.404 106.785L168.076 106.953L167.685 108.522L174.842 110.305L174.644 111.098Z" fill="white"/>
<path fill-rule="evenodd" clip-rule="evenodd" d="M175.924 105.31L167.964 103.994L168.556 100.415L169.298 100.537L168.842 103.3L171.577 103.752L171.912 101.726L172.643 101.847L172.307 103.873L175.323 104.371L175.795 101.513L176.532 101.634L175.924 105.31Z" fill="white"/>
<path fill-rule="evenodd" clip-rule="evenodd" d="M172.492 96.8713L172.546 96.1705C172.589 95.6202 172.504 95.1971 172.292 94.9019C172.081 94.6067 171.741 94.4416 171.274 94.405C170.804 94.3685 170.442 94.4781 170.189 94.7332C169.935 94.9884 169.787 95.3946 169.744 95.952L169.69 96.6527L172.492 96.8713ZM176.957 98.0485L168.914 97.423L169.027 95.9569C169.096 95.0847 169.321 94.4472 169.704 94.0452C170.087 93.6431 170.633 93.4702 171.342 93.5251C171.835 93.5637 172.237 93.7043 172.55 93.9468C172.862 94.1899 173.069 94.5224 173.171 94.9462L177.276 93.9433L177.206 94.8337L173.289 95.7474C173.28 95.9688 173.271 96.141 173.266 96.2647C173.259 96.3884 173.252 96.5023 173.244 96.607L173.219 96.9275L177.021 97.2234L176.957 98.0485Z" fill="white"/>
<path fill-rule="evenodd" clip-rule="evenodd" d="M170.027 89.3487L176.612 89.2595C176.621 89.1323 176.628 89.0381 176.63 88.9762C176.633 88.9144 176.634 88.8603 176.633 88.8125C176.623 88.0499 176.374 87.5186 175.885 87.2184C175.395 86.9183 174.523 86.7764 173.267 86.7932C172.029 86.8101 171.171 86.9739 170.694 87.2852C170.217 87.5973 169.984 88.1328 169.994 88.8919C169.995 88.9425 169.998 88.9994 170.001 89.0627C170.006 89.1266 170.015 89.2215 170.027 89.3487V89.3487ZM177.386 90.0881L169.319 90.1971L169.299 88.6993C169.286 87.7624 169.595 87.0786 170.225 86.6463C170.854 86.2148 171.874 85.9899 173.283 85.9702C174.707 85.9512 175.739 86.1487 176.382 86.5634C177.025 86.9781 177.354 87.6535 177.366 88.5904L177.386 90.0881Z" fill="white"/>
<path fill-rule="evenodd" clip-rule="evenodd" d="M173.893 81.669L173.723 79.9941L169.608 81.2578L173.893 81.669ZM177.155 82.8069L168.953 81.877L168.839 80.7441L176.689 78.178L176.777 79.046L174.46 79.7503L174.665 81.7716L177.074 81.9993L177.155 82.8069Z" fill="white"/>
<path fill-rule="evenodd" clip-rule="evenodd" d="M176.174 74.6434L168.266 76.2346L168.012 74.9737L171.933 73.1962C172.313 73.0233 172.695 72.8617 173.08 72.7099C173.464 72.5588 173.856 72.4133 174.253 72.2741C173.87 72.2994 173.47 72.3149 173.056 72.3198C172.643 72.3254 172.212 72.3212 171.765 72.3079L167.449 72.175L167.195 70.9099L175.104 69.3194L175.249 70.0398L167.9 71.5179L175.591 71.7435L175.692 72.246L168.683 75.4109L176.032 73.9328L176.174 74.6434Z" fill="white"/>
</g>
</svg>
