<svg width="11" height="11" viewBox="0 0 11 11" fill="none" xmlns="http://www.w3.org/2000/svg">
<path fill-rule="evenodd" clip-rule="evenodd" d="M3.28586 0.291656H8.00581C9.54195 0.291656 10.7917 1.54137 10.7917 3.07752V7.79754C10.7917 9.33361 9.54196 10.5833 8.00588 10.5833H3.28586C1.74971 10.5833 0.5 9.33361 0.5 7.79754V3.07752C0.5 1.54137 1.74971 0.291656 3.28586 0.291656ZM2.83178 5.43749C2.83178 6.98919 4.09414 8.25154 5.64583 8.25154C7.19753 8.25154 8.45988 6.98919 8.45988 5.43749C8.45988 3.88579 7.19753 2.62344 5.64583 2.62344C4.09414 2.62344 2.83178 3.88579 2.83178 5.43749ZM8.52717 3.28709C8.06862 3.28709 7.69566 2.91412 7.69566 2.45557C7.69566 1.99701 8.06862 1.62397 8.52717 1.62397C8.98573 1.62397 9.35877 1.99701 9.35877 2.45557C9.35877 2.91412 8.98573 3.28709 8.52717 3.28709ZM3.43512 5.43751C3.43512 4.2185 4.4269 3.22681 5.64583 3.22681C6.86484 3.22681 7.85653 4.2185 7.85653 5.43751C7.85653 6.65645 6.86484 7.64822 5.64583 7.64822C4.4269 7.64822 3.43512 6.65645 3.43512 5.43751Z" fill="white"/>
</svg>
